<svg width="227" height="227" viewBox="0 0 227 227" fill="none" xmlns="http://www.w3.org/2000/svg">
<g clip-path="url(#clip0_18_35)">
<rect width="227" height="227" fill="black"/>
<path d="M227 227H0V0H227V227ZM114 42C74.2355 42 42 74.2355 42 114L42.0059 114.931C42.5002 153.957 74.0435 185.5 113.069 185.994L114 186C153.454 186 185.496 154.266 185.994 114.931L186 114C186 74.5462 154.266 42.5041 114.931 42.0059L114 42ZM114 56C146.033 56 172 81.9675 172 114C172 146.033 146.033 172 114 172C81.9675 172 56 146.033 56 114C56 81.9675 81.9675 56 114 56ZM193 23C186.373 23 181 28.3726 181 35C181 41.6274 186.373 47 193 47C199.627 47 205 41.6274 205 35C205 28.3726 199.627 23 193 23Z" fill="white"/>
</g>
<rect x="6.5" y="6.5" width="214" height="214" stroke="black" stroke-width="13"/>
<defs>
<clipPath id="clip0_18_35">
<rect width="227" height="227" fill="white"/>
</clipPath>
</defs>
</svg>
