<svg width="227" height="227" viewBox="0 0 227 227" fill="none" xmlns="http://www.w3.org/2000/svg">
<g clip-path="url(#clip0_14_2)">
<path d="M227 227H0V0H227V227ZM114 42C74.2355 42 42 74.2355 42 114L42.0059 114.931C42.5002 153.957 74.0435 185.5 113.069 185.994L114 186C153.454 186 185.496 154.266 185.994 114.931L186 114C186 74.5462 154.266 42.5041 114.931 42.0059L114 42ZM114 72C137.196 72 156 90.804 156 114C156 137.196 137.196 156 114 156C90.804 156 72 137.196 72 114C72 90.804 90.804 72 114 72ZM193 17C183.059 17 175 25.0589 175 35C175 44.9411 183.059 53 193 53C202.941 53 211 44.9411 211 35C211 25.0589 202.941 17 193 17Z" fill="black"/>
</g>
<defs>
<clipPath id="clip0_14_2">
<rect width="227" height="227" fill="white"/>
</clipPath>
</defs>
</svg>
