<svg width="227" height="227" viewBox="0 0 227 227" fill="none" xmlns="http://www.w3.org/2000/svg">
<g clip-path="url(#clip0_18_62)">
<path d="M227 227H0V0H227V227ZM48 74V175H62V74H48ZM151.447 71.3223C139.398 71.3223 127.933 77.0876 117.05 88.6182V73.751H101.892V175H117.05V101.735C127.673 90.2049 137.617 84.4395 146.88 84.4395C153.034 84.4395 157.536 86.4805 160.387 90.5615C163.301 94.5778 164.759 101.088 164.759 110.092V175H179.917V105.72C179.917 82.7883 170.427 71.3225 151.447 71.3223ZM55 45C50.5817 45 47 48.5817 47 53C47 57.4183 50.5817 61 55 61C59.4183 61 63 57.4183 63 53C63 48.5817 59.4183 45 55 45Z" fill="black"/>
</g>
<rect x="6.5" y="6.5" width="214" height="214" stroke="black" stroke-width="13"/>
<defs>
<clipPath id="clip0_18_62">
<rect width="227" height="227" fill="white"/>
</clipPath>
</defs>
</svg>
