<svg width="227" height="227" viewBox="0 0 227 227" fill="none" xmlns="http://www.w3.org/2000/svg">
<g clip-path="url(#clip0_14_15)">
<path d="M227 227H0V0H227V227ZM37.1436 81.8828V178H67.79V81.8828H37.1436ZM159.853 79.4951C143.734 79.4951 132.39 86.858 126.619 93.624V81.8828H95.9736V178H126.619V115.912C130.201 111.534 136.171 106.559 145.325 106.559C154.877 106.559 161.046 110.738 161.046 122.479V178H191.692V109.942C191.692 92.2314 181.742 79.4952 159.853 79.4951ZM52.4668 34.7197C42.7159 34.7198 34.9551 42.4815 34.9551 52.2324C34.9553 61.9832 42.716 69.744 52.4668 69.7441C62.2177 69.7441 69.9783 61.9832 69.9785 52.2324C69.9785 42.4814 62.2178 34.7197 52.4668 34.7197Z" fill="black"/>
</g>
<defs>
<clipPath id="clip0_14_15">
<rect width="227" height="227" fill="white"/>
</clipPath>
</defs>
</svg>
