<svg width="227" height="227" viewBox="0 0 227 227" fill="none" xmlns="http://www.w3.org/2000/svg">
<g clip-path="url(#clip0_14_15)">
<rect x="15" y="15" width="197" height="197" stroke="black" stroke-width="30"/>
<path d="M66.95 79.4C59.6 79.4 53.75 73.55 53.75 66.2C53.75 58.85 59.6 53 66.95 53C74.3 53 80.15 58.85 80.15 66.2C80.15 73.55 74.3 79.4 66.95 79.4ZM78.5 161H55.4V88.55H78.5V161ZM171.894 161H148.794V119.15C148.794 110.3 144.144 107.15 136.944 107.15C130.044 107.15 125.544 110.9 122.844 114.2V161H99.7438V88.55H122.844V97.4C127.194 92.3 135.744 86.75 147.894 86.75C164.394 86.75 171.894 96.35 171.894 109.7V161Z" fill="black"/>
</g>
<defs>
<clipPath id="clip0_14_15">
<rect width="227" height="227" fill="white"/>
</clipPath>
</defs>
</svg>
